<svg width="73" height="83" viewBox="0 0 73 83" fill="none" xmlns="http://www.w3.org/2000/svg">
<g clip-path="url(#clip0_2_202)">
<path d="M36.5 41.5C42.0317 41.5 47.3368 39.3138 51.2482 35.4225C55.1597 31.5311 57.3571 26.2532 57.3571 20.75C57.3571 15.2468 55.1597 9.96891 51.2482 6.07753C47.3368 2.18615 42.0317 0 36.5 0C30.9683 0 25.6632 2.18615 21.7518 6.07753C17.8403 9.96891 15.6429 15.2468 15.6429 20.75C15.6429 26.2532 17.8403 31.5311 21.7518 35.4225C25.6632 39.3138 30.9683 41.5 36.5 41.5ZM20.8571 50.4484C8.79911 53.9662 0 65.0545 0 78.1853C0 80.8439 2.16719 83 4.83951 83H68.1605C70.8328 83 73 80.8439 73 78.1853C73 65.0545 64.2009 53.9662 52.1429 50.4484V58.6836C56.6402 59.8346 59.9643 63.9035 59.9643 68.7344V75.2188C59.9643 76.6453 58.7911 77.8125 57.3571 77.8125H54.75C53.3161 77.8125 52.1429 76.6453 52.1429 75.2188C52.1429 73.7922 53.3161 72.625 54.75 72.625V68.7344C54.75 65.865 52.4199 63.5469 49.5357 63.5469C46.6516 63.5469 44.3214 65.865 44.3214 68.7344V72.625C45.7554 72.625 46.9286 73.7922 46.9286 75.2188C46.9286 76.6453 45.7554 77.8125 44.3214 77.8125H41.7143C40.2804 77.8125 39.1071 76.6453 39.1071 75.2188V68.7344C39.1071 63.9035 42.4313 59.8346 46.9286 58.6836V49.4271C45.9509 49.3299 44.9569 49.2812 43.9467 49.2812H29.0533C28.0431 49.2812 27.0491 49.3299 26.0714 49.4271V60.0291C29.8355 61.1477 32.5893 64.6168 32.5893 68.7344C32.5893 73.7436 28.4993 77.8125 23.4643 77.8125C18.4292 77.8125 14.3393 73.7436 14.3393 68.7344C14.3393 64.6168 17.0931 61.1477 20.8571 60.0291V50.4484ZM23.4643 72.625C24.5015 72.625 25.4962 72.2151 26.2296 71.4855C26.963 70.7558 27.375 69.7662 27.375 68.7344C27.375 67.7025 26.963 66.7129 26.2296 65.9833C25.4962 65.2537 24.5015 64.8438 23.4643 64.8438C22.4271 64.8438 21.4324 65.2537 20.699 65.9833C19.9656 66.7129 19.5536 67.7025 19.5536 68.7344C19.5536 69.7662 19.9656 70.7558 20.699 71.4855C21.4324 72.2151 22.4271 72.625 23.4643 72.625Z" fill="white"/>
</g>
<defs>
<clipPath id="clip0_2_202">
<rect width="73" height="83" fill="white"/>
</clipPath>
</defs>
</svg>
