<svg width="105" height="105" viewBox="0 0 105 105" fill="none" xmlns="http://www.w3.org/2000/svg">
<path d="M30.625 61.25L40.6569 51.2181C41.4773 50.3979 42.5899 49.9372 43.75 49.9372C44.9101 49.9372 46.0227 50.3979 46.8431 51.2181L53.7819 58.1569C54.6023 58.9771 55.7149 59.4378 56.875 59.4378C58.0351 59.4378 59.1477 58.9771 59.9681 58.1569L74.375 43.75M74.375 43.75V54.6875M74.375 43.75H63.4375" stroke="white" stroke-width="6" stroke-linecap="round" stroke-linejoin="round"/>
<path d="M96.25 52.5C96.25 73.1238 96.25 83.4356 89.8406 89.8406C83.44 96.25 73.1238 96.25 52.5 96.25C31.8762 96.25 21.5644 96.25 15.155 89.8406C8.75 83.44 8.75 73.1238 8.75 52.5C8.75 31.8762 8.75 21.5644 15.155 15.155C21.5687 8.75 31.8762 8.75 52.5 8.75C73.1238 8.75 83.4356 8.75 89.8406 15.155C94.1019 19.4162 95.5281 25.4056 96.0094 35" stroke="white" stroke-width="6" stroke-linecap="round"/>
</svg>
