<svg width="90" height="90" viewBox="0 0 90 90" fill="none" xmlns="http://www.w3.org/2000/svg">
<g clip-path="url(#clip0_2_204)">
<path fill-rule="evenodd" clip-rule="evenodd" d="M45 7.5C65.7112 7.5 82.5 24.2888 82.5 45C82.5 65.7112 65.7112 82.5 45 82.5C24.2888 82.5 7.5 65.7112 7.5 45C7.5 24.2888 24.2888 7.5 45 7.5ZM52.44 53.4375C50.4525 55.1925 47.8537 56.25 45 56.25C42.2593 56.2549 39.6121 55.2542 37.56 53.4375C36.8141 52.7791 35.8372 52.444 34.8442 52.5059C33.8512 52.5678 32.9234 53.0216 32.265 53.7675C31.6066 54.5134 31.2715 55.4903 31.3334 56.4833C31.3953 57.4764 31.8491 58.4041 32.595 59.0625C36.0186 62.0878 40.4312 63.7552 45 63.75C49.569 63.7563 53.982 62.0887 57.405 59.0625C58.1509 58.4041 58.6047 57.4764 58.6666 56.4833C58.7285 55.4903 58.3934 54.5134 57.735 53.7675C57.0766 53.0216 56.1488 52.5678 55.1558 52.5059C54.1628 52.444 53.1859 52.7791 52.44 53.4375ZM31.875 30C27.7987 30 24.5325 32.55 22.8975 35.82C22.4677 36.6755 22.3814 37.663 22.6563 38.5802C22.9311 39.4973 23.5464 40.2745 24.3759 40.7526C25.2055 41.2306 26.1864 41.3733 27.1178 41.1513C28.0491 40.9294 28.8603 40.3596 29.385 39.5587L29.6025 39.18C30.21 37.965 31.14 37.5 31.875 37.5C32.5125 37.5 33.3075 37.8563 33.9038 38.76L34.1475 39.18C34.5977 40.0612 35.3779 40.7288 36.3181 41.0372C37.2583 41.3456 38.2824 41.27 39.167 40.8266C40.0517 40.3833 40.7253 39.6083 41.041 38.6705C41.3567 37.7327 41.289 36.7081 40.8525 35.82C39.2138 32.55 35.9513 30 31.875 30ZM58.125 30C54.0487 30 50.7862 32.55 49.1475 35.82C48.7177 36.6755 48.6314 37.663 48.9063 38.5802C49.1811 39.4973 49.7964 40.2745 50.6259 40.7526C51.4555 41.2306 52.4364 41.3733 53.3678 41.1513C54.2991 40.9294 55.1103 40.3596 55.635 39.5587L55.8525 39.18C56.46 37.965 57.39 37.5 58.125 37.5C58.7625 37.5 59.5575 37.8563 60.1538 38.76L60.3975 39.18C60.6158 39.6242 60.9198 40.0207 61.2921 40.3468C61.6644 40.6729 62.0975 40.9221 62.5666 41.08C63.0356 41.2379 63.5313 41.3014 64.025 41.2668C64.5186 41.2322 65.0006 41.1003 65.4431 40.8786C65.8855 40.6568 66.2797 40.3497 66.6029 39.9749C66.9261 39.6002 67.1719 39.1651 67.3262 38.6948C67.4804 38.2246 67.5401 37.7285 67.5017 37.2351C67.4633 36.7417 67.3276 36.2607 67.1025 35.82C65.4675 32.55 62.2013 30 58.125 30Z" fill="white"/>
</g>
<defs>
<clipPath id="clip0_2_204">
<rect width="90" height="90" fill="white"/>
</clipPath>
</defs>
</svg>
