<svg width="481" height="691" viewBox="0 0 481 691" fill="none" xmlns="http://www.w3.org/2000/svg">
<path d="M149.038 255.502H148.981C149.673 252.894 155.923 248.717 160.317 248.717C161.862 248.717 163.364 248.335 163.653 247.869C163.674 247.835 163.687 247.786 163.692 247.723C163.614 246.685 162.491 243.689 160.947 240.473L160.668 239.897L160.667 239.896C158.676 235.75 157.823 233.975 157.862 232.814C157.85 232.53 157.886 232.284 157.967 232.053C158.168 231.485 158.643 231.014 159.347 230.315C159.403 230.26 159.46 230.203 159.518 230.145C161.084 228.587 162.724 228.384 168.886 228.989C175.601 229.648 177.149 229.38 184.191 226.346C188.501 224.49 192.898 222.954 193.962 222.932C196.591 222.877 198.232 226.3 198.232 231.836C198.232 237.291 200.506 243.15 204.421 247.78C206.262 249.958 207.155 251.516 207.111 252.8C207.148 253.899 206.528 254.793 205.257 255.686H148.982C148.998 255.625 149.017 255.564 149.038 255.502Z" fill="#054CB6"/>
<path d="M189.396 78.9441C186.734 82.1083 185.637 83.8131 185.702 84.8822C185.678 85.3037 185.815 85.6323 186.094 85.9094C186.815 86.6264 187.937 87.2108 188.587 87.2095C189.677 87.2082 194.63 76.1351 194.482 74.2702C194.494 74.0668 194.47 73.9266 194.406 73.8622C194.186 73.6432 191.93 75.9304 189.396 78.9441Z" fill="#054CB6"/>
<path d="M180.182 96.5726C179.466 98.7341 178.217 100.503 177.408 100.503C175.47 100.503 169.261 106.872 168.545 109.593C168.439 109.998 168.39 110.338 168.404 110.618C168.368 111.544 168.898 111.914 170.134 111.914C171.318 111.914 172.286 112.42 172.286 113.037C172.286 113.656 173.706 114.16 175.443 114.16C177.18 114.16 179.202 114.758 179.936 115.489C181.877 117.419 182.414 116.41 184.316 107.266C184.723 105.315 185.186 103.348 185.63 101.655C185.931 100.502 186.224 99.4754 186.484 98.6664C186.728 97.9061 186.939 97.3366 187.105 97.0322C187.535 96.2306 187.735 95.5291 187.714 94.9404C187.772 93.4686 186.543 92.6427 184.152 92.6427C182.104 92.6427 181.183 93.5556 180.182 96.5726Z" fill="#054CB6"/>
<path d="M169.485 118.749C169.225 119.521 168.46 122.299 167.785 124.924C166.907 128.338 165.974 129.696 164.509 129.696C160.236 129.696 154.235 137.593 154.235 143.22C154.235 143.286 154.236 143.349 154.236 143.411C154.237 144.263 154.308 144.75 154.616 144.923C154.884 145.072 155.326 144.988 156.052 144.703L156.358 144.579L156.586 144.482L157.066 144.268C159.147 143.324 160.562 143.313 162.424 144.229C164.689 145.342 166.646 145.713 176.763 146.944C179.278 147.25 179.625 146.787 180.3 142.201C180.362 141.771 180.43 141.262 180.497 140.693L180.644 139.344C180.698 138.839 180.752 138.305 180.804 137.75L180.896 136.726C180.98 135.792 181.061 134.815 181.137 133.83C181.27 132.086 181.384 130.321 181.462 128.727C181.575 126.424 181.653 124.753 181.651 123.548C181.665 120.271 181.142 120.254 179.265 120.516C177.829 120.716 175.436 120.084 173.946 119.112C170.674 116.978 170.098 116.932 169.485 118.749Z" fill="#054CB6"/>
<path d="M159.846 152.791C159.442 153.85 159.229 155.668 159.249 157.482C159.251 158.444 159.318 159.413 159.456 160.273C159.653 161.498 159.79 162.383 159.809 163.022C159.795 164.463 159.046 164.504 156.723 164.504C150.648 164.504 144.502 172.347 144.586 179.047C144.582 179.908 144.68 180.751 144.892 181.559C145.605 184.278 146.347 184.31 150.735 181.812C153.651 180.148 154.548 180.072 156.551 181.311C158.413 182.465 160.158 182.51 164.754 181.518C167.44 180.939 169.294 180.716 171.223 180.885C172.7 181.015 174.221 181.375 176.191 181.979C177.622 182.419 178.801 182.718 179.741 182.876C181.305 183.14 182.21 183.02 182.522 182.518C182.659 182.298 182.721 181.734 182.715 180.936C182.725 179.393 182.455 176.85 181.968 174.232C181.501 171.721 181.248 168.65 181.246 165.935C181.25 164.446 181.331 163.072 181.495 161.966C181.758 160.177 181.897 158.692 181.884 157.473C181.89 152.992 179.943 151.975 174.733 152.651C171.053 153.13 168.491 152.819 166.234 151.622C161.862 149.303 161.128 149.438 159.846 152.791Z" fill="#054CB6"/>
<path d="M155.75 188.699C155.56 189.192 155.473 189.967 155.483 190.986C155.479 193.398 156.06 197.271 157.166 202.023C157.338 202.763 157.456 203.326 157.473 203.755C157.434 204.847 156.553 204.926 153.82 204.926C147.492 204.926 142.811 209.716 142.117 216.9C142.035 217.751 141.997 218.623 142 219.471C141.992 221.884 142.311 224.125 142.862 225.149L144.152 227.551L148.673 224.577C152.711 221.914 153.616 221.73 157.223 222.833C160.613 223.868 162.185 223.689 167.055 221.719C171.527 219.907 174.98 219.416 182.18 219.567C189.57 219.722 192.433 219.408 192.363 216.631C192.397 215.148 191.514 212.918 189.987 209.598C188.276 205.881 186.768 200.1 186.354 195.675C185.965 191.513 185.123 187.786 184.485 187.393C183.846 187 180.383 187.565 176.789 188.647C170.692 190.485 169.894 190.494 164.864 188.789C158.162 186.516 156.599 186.5 155.75 188.699Z" fill="#054CB6"/>
<path d="M229.159 256.479H290.542C290.501 256.417 290.46 256.356 290.418 256.294H290.543C290.021 255.511 289.41 254.71 288.717 253.907C286.711 251.579 285.039 249.43 284.777 248.856C285.089 248.506 287.5 247.715 290.402 247.023C301.21 244.449 309.734 235.067 309.734 225.745C309.734 225.724 309.733 225.703 309.733 225.682L309.732 225.643C309.732 225.616 309.733 225.588 309.733 225.56C309.733 222.069 305.361 216.384 302.675 216.384C301.071 216.384 297.436 218.504 292.06 222.577C287.412 226.098 286.796 226.256 279.81 225.7C272.665 225.131 272.158 225.275 262.407 230.611L252.367 236.108L238.881 236.74C227.427 237.275 225.162 237.692 223.831 239.498C222.892 240.772 222.39 241.83 222.417 243.132C222.381 245.112 223.6 247.621 226.42 252.353C227.397 253.993 228.299 255.356 229.159 256.479Z" fill="#1ABB71"/>
<path d="M228.036 230.855C230.796 229.408 235.541 226.796 238.577 225.049C243.594 222.165 245.363 221.825 257.889 221.332C266.421 220.997 272.869 220.189 274.802 219.214C276.941 218.135 278.001 216.517 277.974 214.267C278.013 211.61 276.487 208.046 273.38 203.415L268.959 196.819L275.56 196.065C283.682 195.137 287.975 193.058 293.89 187.186C297.002 184.097 298.509 181.08 298.469 177.812C298.48 175.74 297.865 173.569 296.639 171.216C294.45 167.013 291.52 166.927 282.26 170.795C275.558 173.596 275.135 173.637 270.613 171.922C264.325 169.539 259.168 169.683 251.126 172.467C242.939 175.3 235.298 175.492 226.076 173.09C216.91 170.702 213.654 170.797 210.904 173.528C209.477 174.944 208.755 176.599 208.781 179.148C208.768 182.233 209.885 186.649 212.214 193.621C214.414 200.208 215.243 202.948 215.266 206.29C215.263 208.059 215.04 210.017 214.68 212.809C214.307 215.706 214.12 218.241 214.127 220.449C214.117 226.006 215.308 229.515 217.789 231.511C220.974 234.074 222.019 234.006 228.036 230.855Z" fill="#1ABB71"/>
<path d="M222.768 164.052C233.22 160.872 243.597 160.51 252.935 162.998C262.579 165.569 267.287 165.24 269.53 161.841C270.424 160.487 270.86 159.661 270.83 158.379C270.845 157.125 270.384 155.455 269.437 152.352C268.351 148.803 267.207 144.544 266.899 142.892L266.372 140.075L273.155 140.686C282.92 141.565 287.558 140.391 292.088 135.894C295.362 132.644 297.026 129.007 296.993 125.361C297.005 123.517 296.584 121.669 295.717 119.865L293.896 116.077L285.06 116.729C276.292 117.377 276.196 117.355 272.886 113.877C269.573 110.398 269.464 110.373 257.869 110.373H246.189L237.489 104.734C232.702 101.632 228.412 99.0947 227.951 99.0947C226.947 99.0947 223.899 101.44 221.825 103.568C221.009 104.403 220.343 105.207 220.013 105.821C219.407 106.943 218.1 114.058 217.109 121.63C215.701 132.364 214.41 137.415 211.247 144.557C208.453 150.866 207.088 155.478 207.114 158.848C207.095 161.534 207.938 163.446 209.626 164.803C209.861 164.991 210.072 165.167 210.267 165.328L210.268 165.33L210.269 165.33C210.936 165.883 211.405 166.271 211.943 166.48C213.218 166.974 214.886 166.464 220.496 164.746L220.506 164.743C221.198 164.531 221.95 164.301 222.768 164.052Z" fill="#1ABB71"/>
<path d="M276.08 104.596C277.95 102.741 279.119 99.9901 279.6 96.3192C279.711 95.4637 279.816 94.6567 279.915 93.896L279.919 93.8585L279.92 93.857C280.956 85.8584 281.328 82.9849 282.574 82.5404C283.273 82.2912 284.246 82.8055 285.765 83.6081C286.027 83.7465 286.305 83.8935 286.601 84.0466C296.456 89.1498 306.749 82.5896 309.856 69.2231C310.459 66.6292 310.786 64.7088 310.764 63.3262C310.782 60.2293 309.179 59.6835 305.224 60.3112C299.797 61.1727 297.299 59.5841 297.238 55.2211C297.238 55.1251 297.237 55.0321 297.236 54.9417C297.228 52.0408 296.836 51.8406 290.706 51.0906C281.294 49.9397 280.339 49.3921 276.98 43.2097C274.747 39.1008 273.203 37.545 271.11 37.3113C267.112 36.8602 260.791 42.4026 254.777 51.6368C252.037 55.8409 245.373 64.2204 239.97 70.2561C228.917 82.6057 226.866 85.3006 226.932 88.6825C226.93 89.0763 226.96 89.4769 227.009 89.901C227.362 92.9539 227.638 93.0858 234.191 93.343C249.8 93.9553 252.489 94.667 261.647 100.603L261.939 100.792C269.351 105.596 271.712 107.126 273.47 106.613C274.292 106.373 274.983 105.687 275.996 104.68L276.08 104.596Z" fill="#1ABB71"/>
<path d="M303.829 46.753C305.233 45.7764 308.116 41.59 310.237 37.4488C315.976 26.2398 316.769 25.3849 319.726 27.2176C321.934 28.5878 322.543 28.369 326.126 24.9214C330.585 20.629 338.133 7.16448 338.133 3.49804C338.133 3.45719 338.133 3.4167 338.132 3.37656C338.132 3.35518 338.133 3.33412 338.133 3.31337C338.133 -2.73317 332.32 -1.06732 304.37 12.9987C282.964 23.7724 277.37 27.1735 276.24 30.0989C276.088 30.4908 276.014 30.8428 276.031 31.1614C275.947 32.8403 278.128 33.6319 284.233 34.3892C290.731 35.1955 292.304 36.4338 296.106 43.7351C298.836 48.9748 299.987 49.4248 303.829 46.753Z" fill="#1ABB71"/>
<path d="M250.313 434H189.302C189.343 434.061 189.384 434.123 189.426 434.184H189.302C189.82 434.967 190.427 435.769 191.116 436.572C193.11 438.899 194.772 441.049 195.033 441.622C194.722 441.973 192.326 442.764 189.442 443.456C178.699 446.029 170.227 455.411 170.227 464.734C170.227 464.755 170.227 464.776 170.228 464.797L170.228 464.835C170.228 464.863 170.228 464.891 170.228 464.919C170.228 468.409 174.573 474.094 177.242 474.094C178.837 474.094 182.45 471.975 187.794 467.901C192.413 464.38 193.026 464.223 199.97 464.779C207.071 465.348 207.575 465.204 217.267 459.868L227.246 454.37L240.651 453.739C252.035 453.203 254.286 452.786 255.61 450.98C256.542 449.707 257.041 448.648 257.014 447.346C257.05 445.367 255.838 442.858 253.036 438.126C252.064 436.485 251.168 435.122 250.313 434Z" fill="#054CB6"/>
<path d="M251.43 459.624C248.686 461.071 243.97 463.683 240.952 465.43C235.966 468.313 234.208 468.654 221.758 469.147C213.277 469.482 206.868 470.289 204.947 471.265C202.821 472.344 201.767 473.962 201.794 476.211C201.755 478.869 203.272 482.433 206.36 487.064L210.754 493.66L204.194 494.414C196.121 495.342 191.854 497.42 185.975 503.293C182.882 506.382 181.383 509.398 181.424 512.667C181.413 514.738 182.023 516.909 183.242 519.263C185.418 523.465 188.331 523.551 197.534 519.684C204.196 516.882 204.616 516.841 209.111 518.556C215.36 520.939 220.486 520.795 228.48 518.011C236.617 515.178 244.212 514.987 253.377 517.389C262.488 519.776 265.724 519.681 268.458 516.95C269.876 515.534 270.593 513.88 270.568 511.33C270.581 508.246 269.47 503.829 267.156 496.857C264.969 490.27 264.145 487.53 264.122 484.189C264.126 482.42 264.347 480.462 264.704 477.669C265.076 474.772 265.261 472.237 265.254 470.03C265.264 464.473 264.081 460.963 261.614 458.967C258.448 456.405 257.41 456.473 251.43 459.624Z" fill="#054CB6"/>
<path d="M256.666 526.427C246.277 529.606 235.963 529.968 226.682 527.48C217.096 524.91 212.417 525.238 210.187 528.637C209.299 529.991 208.865 530.818 208.895 532.1C208.88 533.354 209.338 535.024 210.28 538.127C211.359 541.676 212.496 545.934 212.802 547.586L213.326 550.404L206.584 549.792C196.878 548.914 192.268 550.088 187.765 554.584C184.512 557.835 182.858 561.471 182.89 565.117C182.878 566.961 183.297 568.81 184.159 570.614L185.968 574.402L194.751 573.75C203.466 573.101 203.561 573.123 206.851 576.602C210.144 580.08 210.253 580.106 221.778 580.106H233.387L242.034 585.745C246.791 588.847 251.055 591.384 251.514 591.384C252.512 591.384 255.542 589.039 257.603 586.911C258.414 586.075 259.076 585.272 259.404 584.658C260.006 583.535 261.306 576.421 262.29 568.849C263.69 558.114 264.973 553.064 268.116 545.922C270.894 539.613 272.251 535 272.224 531.631C272.243 528.944 271.405 527.033 269.728 525.676C269.495 525.487 269.284 525.312 269.091 525.15L269.089 525.149L269.089 525.148C268.426 524.596 267.96 524.207 267.425 523.998C266.158 523.504 264.5 524.015 258.924 525.733L258.914 525.736C258.226 525.948 257.479 526.178 256.666 526.427Z" fill="#054CB6"/>
<path d="M203.676 585.883C201.818 587.738 200.656 590.488 200.178 594.159C200.067 595.015 199.963 595.822 199.865 596.583L199.861 596.62L199.86 596.622C198.83 604.62 198.46 607.494 197.222 607.938C196.528 608.187 195.56 607.673 194.051 606.87C193.79 606.732 193.514 606.585 193.22 606.432C183.424 601.329 173.193 607.889 170.105 621.255C169.506 623.849 169.181 625.77 169.203 627.152C169.185 630.249 170.778 630.795 174.709 630.167C180.104 629.306 182.586 630.894 182.647 635.257C182.647 635.353 182.648 635.446 182.648 635.537C182.657 638.438 183.046 638.638 189.139 639.388C198.494 640.539 199.444 641.086 202.783 647.269C205.001 651.378 206.537 652.934 208.617 653.167C212.591 653.618 218.873 648.076 224.851 638.842C227.574 634.638 234.198 626.258 239.568 620.222C250.554 607.873 252.592 605.178 252.527 601.796C252.528 601.402 252.499 601.002 252.451 600.578C252.1 597.525 251.825 597.393 245.311 597.136C229.798 596.523 227.125 595.812 218.023 589.876L217.732 589.687C210.365 584.882 208.019 583.352 206.27 583.866C205.454 584.106 204.767 584.792 203.761 585.798L203.676 585.883Z" fill="#054CB6"/>
<path d="M176.096 643.725C174.701 644.702 171.835 648.888 169.727 653.03C164.023 664.239 163.235 665.094 160.296 663.261C158.101 661.891 157.496 662.109 153.934 665.557C149.502 669.849 142 683.314 142 686.98C142 687.021 142 687.062 142.001 687.102C142 687.123 142 687.144 142 687.165C142 693.212 147.778 691.546 175.558 677.48C196.834 666.706 202.395 663.305 203.518 660.38C203.669 659.988 203.742 659.636 203.725 659.317C203.809 657.638 201.641 656.847 195.573 656.089C189.115 655.283 187.551 654.045 183.772 646.743C181.059 641.504 179.915 641.054 176.096 643.725Z" fill="#054CB6"/>
<path d="M331.009 434.978H331.066C330.367 437.598 324.04 441.793 319.593 441.793C318.028 441.793 316.508 442.177 316.216 442.645C316.195 442.678 316.182 442.728 316.176 442.792C316.256 443.834 317.392 446.843 318.955 450.072L319.238 450.651L319.238 450.652C321.254 454.816 322.117 456.599 322.077 457.765C322.089 458.05 322.053 458.298 321.971 458.529C321.768 459.1 321.287 459.573 320.574 460.275C320.518 460.331 320.46 460.388 320.401 460.446C318.816 462.011 317.156 462.214 310.919 461.607C304.122 460.945 302.556 461.214 295.427 464.261C291.065 466.125 286.614 467.668 285.537 467.69C282.876 467.746 281.215 464.307 281.215 458.748C281.215 453.269 278.913 447.384 274.95 442.734C273.087 440.546 272.184 438.981 272.228 437.692C272.19 436.589 272.818 435.691 274.104 434.794H331.066C331.05 434.854 331.031 434.916 331.009 434.978Z" fill="#1ABB71"/>
<path d="M290.159 612.307C292.853 609.129 293.964 607.417 293.898 606.343C293.923 605.92 293.783 605.59 293.501 605.311C292.772 604.591 291.636 604.004 290.978 604.006C289.874 604.007 284.861 615.128 285.011 617.001C284.999 617.206 285.023 617.347 285.088 617.411C285.311 617.631 287.593 615.334 290.159 612.307Z" fill="#1ABB71"/>
<path d="M299.485 594.602C300.21 592.431 301.474 590.655 302.293 590.655C304.255 590.655 310.54 584.257 311.264 581.524C311.371 581.117 311.421 580.776 311.407 580.495C311.443 579.564 310.907 579.193 309.656 579.193C308.457 579.193 307.478 578.685 307.478 578.065C307.478 577.444 306.04 576.937 304.282 576.937C302.523 576.937 300.477 576.337 299.734 575.603C297.77 573.664 297.226 574.678 295.301 583.861C294.889 585.821 294.42 587.796 293.97 589.497C293.666 590.655 293.37 591.686 293.106 592.499C292.859 593.262 292.645 593.834 292.478 594.14C292.043 594.945 291.84 595.65 291.861 596.241C291.803 597.719 293.047 598.549 295.467 598.549C297.539 598.549 298.472 597.632 299.485 594.602Z" fill="#1ABB71"/>
<path d="M310.312 572.329C310.576 571.553 311.35 568.763 312.033 566.126C312.922 562.698 313.866 561.333 315.349 561.333C319.675 561.333 325.748 553.402 325.748 547.751C325.748 547.685 325.748 547.62 325.747 547.559C325.747 546.703 325.675 546.213 325.363 546.04C325.091 545.891 324.644 545.975 323.909 546.261L323.599 546.385L323.369 546.483L322.883 546.698C320.776 547.646 319.345 547.657 317.46 546.737C315.167 545.619 313.186 545.246 302.946 544.01C300.4 543.703 300.049 544.168 299.366 548.774C299.303 549.206 299.234 549.717 299.166 550.289L299.018 551.643C298.963 552.15 298.908 552.687 298.856 553.244L298.763 554.272C298.678 555.211 298.595 556.192 298.518 557.181C298.384 558.933 298.269 560.706 298.189 562.307C298.075 564.62 297.996 566.299 297.998 567.508C297.984 570.8 298.514 570.817 300.413 570.554C301.867 570.353 304.289 570.988 305.797 571.963C309.109 574.107 309.692 574.153 310.312 572.329Z" fill="#1ABB71"/>
<path d="M320.069 538.138C320.478 537.074 320.694 535.248 320.674 533.426C320.672 532.46 320.604 531.487 320.464 530.623C320.264 529.393 320.126 528.504 320.107 527.862C320.121 526.415 320.879 526.373 323.231 526.373C329.379 526.373 335.6 518.496 335.516 511.767C335.519 510.903 335.42 510.055 335.206 509.245C334.484 506.514 333.732 506.481 329.291 508.99C326.34 510.662 325.432 510.738 323.404 509.493C321.52 508.334 319.753 508.289 315.101 509.285C312.382 509.867 310.506 510.091 308.553 509.921C307.058 509.791 305.519 509.429 303.525 508.822C302.076 508.38 300.883 508.08 299.931 507.921C298.348 507.656 297.432 507.777 297.117 508.281C296.978 508.502 296.916 509.068 296.921 509.869C296.911 511.42 297.184 513.973 297.677 516.603C298.15 519.125 298.406 522.209 298.409 524.936C298.404 526.432 298.322 527.812 298.156 528.923C297.89 530.719 297.749 532.211 297.763 533.436C297.757 537.935 299.727 538.958 305 538.278C308.725 537.797 311.318 538.11 313.603 539.312C318.028 541.641 318.772 541.505 320.069 538.138Z" fill="#1ABB71"/>
<path d="M324.215 502.073C324.407 501.578 324.496 500.799 324.485 499.776C324.49 497.353 323.901 493.463 322.782 488.691C322.608 487.947 322.489 487.382 322.471 486.951C322.51 485.855 323.402 485.775 326.169 485.775C332.574 485.775 337.312 480.964 338.015 473.749C338.098 472.894 338.136 472.018 338.133 471.167C338.141 468.743 337.818 466.492 337.26 465.464L335.954 463.051L331.379 466.039C327.292 468.713 326.375 468.897 322.724 467.79C319.292 466.751 317.701 466.93 312.772 468.908C308.246 470.729 304.751 471.222 297.462 471.07C289.982 470.915 287.084 471.23 287.156 474.019C287.121 475.508 288.015 477.748 289.561 481.082C291.292 484.816 292.819 490.622 293.238 495.066C293.632 499.247 294.484 502.99 295.13 503.385C295.776 503.779 299.282 503.212 302.92 502.125C309.091 500.279 309.899 500.27 314.99 501.983C321.774 504.265 323.356 504.281 324.215 502.073Z" fill="#1ABB71"/>
<path d="M421.547 339.257L446.118 279.117H456.514L481 339.257H467.941L463.817 327.831H438.73L434.606 339.257H421.547ZM449.125 301.025L442.682 317.435H459.865L453.421 301.025C452.562 298.734 451.846 296.443 451.273 294.152C450.701 296.615 449.985 298.906 449.125 301.025Z" fill="#054CB6"/>
<path d="M399.796 340.374C395.329 340.374 391.176 339.572 387.339 337.968C383.558 336.365 380.236 334.131 377.373 331.267C374.566 328.403 372.361 325.11 370.757 321.387C369.211 317.607 368.438 313.569 368.438 309.273C368.438 304.977 369.182 300.939 370.671 297.159C372.218 293.379 374.366 290.057 377.115 287.193C379.921 284.329 383.243 282.095 387.081 280.492C390.918 278.831 395.157 278 399.796 278C404.722 278 408.932 278.773 412.426 280.32C415.977 281.866 419.098 284.243 421.79 287.451L413.285 294.839C409.676 291.059 405.18 289.169 399.796 289.169C395.959 289.169 392.608 290.085 389.744 291.918C386.938 293.751 384.761 296.185 383.215 299.221C381.668 302.257 380.895 305.607 380.895 309.273C380.895 312.939 381.668 316.289 383.215 319.325C384.761 322.303 386.966 324.709 389.83 326.542C392.694 328.317 396.102 329.205 400.054 329.205C402.975 329.205 405.553 328.718 407.786 327.745C410.02 326.771 412.025 325.31 413.8 323.363L422.564 330.837C420.273 333.587 417.208 335.878 413.371 337.711C409.591 339.486 405.066 340.374 399.796 340.374Z" fill="#054CB6"/>
<path d="M328.391 339.257V279.117H363.616V289.942H340.419V303.431H363.186V313.913H340.419V328.432H363.787V339.257H328.391Z" fill="#054CB6"/>
<path d="M293.566 339.257V289.942H276.383V279.117H322.777V289.942H305.594V339.257H293.566Z" fill="#054CB6"/>
<path d="M246.679 340.374C242.212 340.374 238.059 339.572 234.221 337.968C230.441 336.365 227.119 334.131 224.255 331.267C221.449 328.403 219.244 325.11 217.64 321.387C216.094 317.607 215.32 313.569 215.32 309.273C215.32 304.977 216.094 300.939 217.64 297.159C219.244 293.379 221.449 290.057 224.255 287.193C227.119 284.329 230.441 282.095 234.221 280.492C238.059 278.831 242.212 278 246.679 278C251.147 278 255.271 278.831 259.051 280.492C262.831 282.095 266.124 284.329 268.931 287.193C271.738 290.057 273.914 293.379 275.46 297.159C277.064 300.939 277.866 304.977 277.866 309.273C277.866 313.569 277.064 317.607 275.46 321.387C273.914 325.11 271.738 328.403 268.931 331.267C266.124 334.131 262.831 336.365 259.051 337.968C255.271 339.572 251.147 340.374 246.679 340.374ZM246.679 329.205C250.574 329.205 253.896 328.317 256.645 326.542C259.452 324.709 261.6 322.275 263.089 319.239C264.635 316.203 265.408 312.881 265.408 309.273C265.408 305.607 264.635 302.257 263.089 299.221C261.6 296.185 259.452 293.751 256.645 291.918C253.896 290.085 250.574 289.169 246.679 289.169C242.784 289.169 239.405 290.085 236.541 291.918C233.735 293.751 231.558 296.185 230.012 299.221C228.523 302.257 227.778 305.607 227.778 309.273C227.778 312.881 228.523 316.203 230.012 319.239C231.558 322.275 233.735 324.709 236.541 326.542C239.405 328.317 242.784 329.205 246.679 329.205Z" fill="#054CB6"/>
<path d="M196.828 339.257V279.117H208.856V339.257H196.828Z" fill="#054CB6"/>
<path d="M168.681 340.374C163.927 340.374 159.546 339.372 155.536 337.367C151.584 335.305 148.291 331.983 145.656 327.401L156.052 320.785C157.598 323.878 159.546 326.141 161.894 327.573C164.242 328.947 166.734 329.635 169.369 329.635C172.175 329.635 174.38 329.005 175.984 327.745C177.588 326.484 178.39 324.823 178.39 322.762C178.39 320.757 177.76 319.153 176.5 317.95C175.239 316.747 173.55 315.774 171.431 315.029C169.369 314.285 167.106 313.597 164.643 312.967C160.004 311.764 156.31 309.788 153.56 307.039C150.811 304.233 149.436 300.567 149.436 296.042C149.436 292.434 150.324 289.283 152.1 286.591C153.875 283.899 156.338 281.809 159.488 280.32C162.696 278.831 166.419 278.086 170.657 278.086C175.354 278.086 179.277 279.06 182.428 281.007C185.578 282.954 188.27 285.704 190.504 289.255L180.194 295.613C178.762 293.264 177.273 291.546 175.726 290.458C174.18 289.369 172.29 288.825 170.056 288.825C167.65 288.825 165.646 289.427 164.042 290.629C162.496 291.832 161.722 293.436 161.722 295.441C161.722 297.674 162.639 299.307 164.472 300.338C166.362 301.312 168.624 302.199 171.259 303.001C173.034 303.574 175.01 304.261 177.187 305.063C179.421 305.808 181.569 306.867 183.63 308.242C185.692 309.559 187.382 311.335 188.699 313.569C190.017 315.802 190.675 318.638 190.675 322.074C190.675 325.683 189.788 328.861 188.012 331.611C186.237 334.36 183.716 336.508 180.452 338.054C177.187 339.601 173.263 340.374 168.681 340.374Z" fill="#054CB6"/>
<path d="M118.541 339.257V315.115L98.1797 279.117H111.411L120.861 296.386C121.606 297.761 122.35 299.193 123.095 300.682C123.897 302.171 124.498 303.66 124.899 305.149C125.3 303.66 125.844 302.2 126.531 300.768C127.276 299.278 128.021 297.818 128.765 296.386L137.786 279.117H150.931L130.569 315.373V339.257H118.541Z" fill="#054CB6"/>
<path d="M47.1484 339.257V279.117H59.1765V303.345H84.0917V279.117H96.1197V339.257H84.0917V314.17H59.1765V339.257H47.1484Z" fill="#054CB6"/>
<path d="M0 339.257V279.117H20.2758C27.0344 279.117 32.3325 280.721 36.17 283.928C40.0648 287.079 42.0122 291.804 42.0122 298.104C42.0122 304.462 40.0648 309.273 36.17 312.538C32.3325 315.803 27.0344 317.435 20.2758 317.435H12.028V339.257H0ZM12.028 306.61H19.5885C22.8533 306.61 25.3734 305.923 27.149 304.548C28.9246 303.173 29.8123 301.054 29.8123 298.19C29.8123 295.326 28.9246 293.236 27.149 291.918C25.3734 290.544 22.8533 289.857 19.5885 289.857H12.028V306.61Z" fill="#054CB6"/>
<path d="M451.477 399.359V355.374H459.611V372.365C461.298 368.991 464.451 367.304 469.071 367.304C471.32 367.304 473.349 367.826 475.156 368.871C476.964 369.915 478.39 371.401 479.434 373.33C480.479 375.258 481.001 377.547 481.001 380.198V399.359H472.867V382.187C472.867 379.455 472.244 377.487 470.999 376.282C469.753 375.037 468.127 374.414 466.118 374.414C464.391 374.414 462.864 375.037 461.539 376.282C460.253 377.487 459.611 379.455 459.611 382.187V399.359H451.477Z" fill="#1ABB71"/>
<path d="M443.573 399.359C440.48 399.359 438.11 398.596 436.463 397.07C434.816 395.543 433.992 393.073 433.992 389.659V374.957H429.594V368.028H433.992V361.701L442.126 360.857V368.028H448.754V374.957H442.126V389.237C442.126 391.165 442.97 392.129 444.657 392.129H448.031V399.359H443.573Z" fill="#1ABB71"/>
<path d="M418.766 399.359V355.374H426.9V399.359H418.766Z" fill="#1ABB71"/>
<path d="M395.907 400.143C393.055 400.143 390.444 399.42 388.074 397.974C385.744 396.488 383.876 394.519 382.47 392.069C381.105 389.579 380.422 386.827 380.422 383.814C380.422 381.565 380.824 379.456 381.627 377.488C382.43 375.479 383.535 373.732 384.941 372.246C386.347 370.719 387.974 369.534 389.821 368.691C391.709 367.807 393.738 367.365 395.907 367.365C398.638 367.365 400.767 367.887 402.294 368.932C403.82 369.936 405.005 371.282 405.849 372.969V368.028H413.923V399.36H406.03V394.238C405.186 396.006 403.981 397.432 402.414 398.516C400.888 399.601 398.719 400.143 395.907 400.143ZM397.233 392.792C399.04 392.792 400.587 392.39 401.872 391.587C403.198 390.744 404.222 389.639 404.945 388.273C405.668 386.907 406.03 385.421 406.03 383.814C406.03 382.167 405.668 380.661 404.945 379.295C404.222 377.93 403.198 376.825 401.872 375.981C400.587 375.138 399.04 374.716 397.233 374.716C395.505 374.716 393.979 375.138 392.653 375.981C391.368 376.785 390.364 377.869 389.641 379.235C388.918 380.601 388.556 382.107 388.556 383.754C388.556 385.321 388.918 386.807 389.641 388.213C390.364 389.579 391.368 390.683 392.653 391.527C393.979 392.37 395.505 392.792 397.233 392.792Z" fill="#1ABB71"/>
<path d="M362.568 400.143C359.354 400.143 356.522 399.399 354.072 397.913C351.621 396.427 349.713 394.459 348.348 392.008C347.022 389.518 346.359 386.766 346.359 383.754C346.359 380.741 347.062 377.989 348.468 375.499C349.874 372.968 351.782 370.96 354.192 369.474C356.643 367.987 359.434 367.244 362.568 367.244C365.701 367.244 368.452 367.987 370.822 369.474C373.232 370.96 375.1 372.968 376.426 375.499C377.792 377.989 378.474 380.741 378.474 383.754C378.474 384.195 378.454 384.657 378.414 385.139C378.374 385.621 378.314 386.124 378.233 386.646H354.795C355.237 388.494 356.12 390 357.446 391.165C358.812 392.33 360.519 392.912 362.568 392.912C364.335 392.912 365.861 392.51 367.147 391.707C368.472 390.904 369.497 389.899 370.22 388.694L376.546 393.454C375.301 395.423 373.433 397.029 370.943 398.275C368.452 399.52 365.661 400.143 362.568 400.143ZM362.447 374.234C360.519 374.234 358.872 374.816 357.506 375.981C356.141 377.146 355.237 378.672 354.795 380.56H370.28C369.838 378.833 368.914 377.347 367.508 376.101C366.143 374.856 364.455 374.234 362.447 374.234Z" fill="#1ABB71"/>
<path d="M307.797 399.359V357.182H316.232V374.173H333.706V357.182H342.141V399.359H333.706V381.765H316.232V399.359H307.797Z" fill="#1ABB71"/>
<path d="M263.242 399.36V368.028H271.256V372.607C272.903 369.072 276.096 367.305 280.836 367.305C283.086 367.305 285.114 367.827 286.922 368.871C288.729 369.916 290.155 371.402 291.2 373.33C292.244 375.258 292.766 377.548 292.766 380.199V399.36H284.632V382.187C284.632 379.456 284.01 377.488 282.764 376.282C281.519 375.037 279.892 374.415 277.884 374.415C276.157 374.415 274.63 375.037 273.304 376.282C272.019 377.488 271.376 379.456 271.376 382.187V399.36H263.242Z" fill="#1ABB71"/>
<path d="M249.367 399.359V357.182H257.803V399.359H249.367Z" fill="#1ABB71"/>
<path d="M217.762 412.193C214.588 412.193 211.756 411.751 209.266 410.868C206.816 410.024 204.647 408.498 202.759 406.288L207.82 400.323C209.306 402.01 210.853 403.155 212.459 403.758C214.066 404.36 215.854 404.662 217.822 404.662C219.268 404.662 220.614 404.3 221.859 403.577C223.104 402.854 224.088 401.83 224.811 400.504C225.575 399.219 225.956 397.752 225.956 396.106V394.72C225.113 396.166 223.948 397.331 222.461 398.214C221.015 399.098 219.027 399.54 216.496 399.54C213.644 399.54 211.053 398.817 208.724 397.371C206.434 395.925 204.626 393.997 203.301 391.587C201.975 389.136 201.312 386.405 201.312 383.392C201.312 380.379 201.975 377.648 203.301 375.198C204.626 372.747 206.434 370.819 208.724 369.413C211.053 367.967 213.644 367.244 216.496 367.244C219.107 367.244 221.136 367.706 222.582 368.63C224.068 369.554 225.233 370.779 226.077 372.305V368.027H234.09V396.588C234.09 399.801 233.387 402.573 231.981 404.903C230.616 407.232 228.708 409.02 226.257 410.265C223.807 411.55 220.975 412.193 217.762 412.193ZM217.822 392.129C220.513 392.129 222.602 391.285 224.088 389.598C225.575 387.911 226.318 385.842 226.318 383.392C226.318 380.942 225.575 378.873 224.088 377.186C222.602 375.499 220.513 374.655 217.822 374.655C215.171 374.655 213.102 375.499 211.616 377.186C210.17 378.873 209.447 380.942 209.447 383.392C209.447 384.959 209.768 386.405 210.411 387.73C211.094 389.056 212.058 390.12 213.303 390.924C214.548 391.727 216.054 392.129 217.822 392.129Z" fill="#1ABB71"/>
<path d="M168.453 399.36V368.028H176.467V372.607C178.114 369.072 181.307 367.305 186.047 367.305C188.297 367.305 190.325 367.827 192.133 368.871C193.94 369.916 195.366 371.402 196.411 373.33C197.455 375.258 197.977 377.548 197.977 380.199V399.36H189.843V382.187C189.843 379.456 189.22 377.488 187.975 376.282C186.73 375.037 185.103 374.415 183.095 374.415C181.367 374.415 179.841 375.037 178.515 376.282C177.23 377.488 176.587 379.456 176.587 382.187V399.36H168.453Z" fill="#1ABB71"/>
<path d="M159.537 365.437C158.171 365.437 157.006 364.975 156.042 364.051C155.118 363.087 154.656 361.942 154.656 360.616C154.656 359.331 155.118 358.226 156.042 357.303C157.006 356.338 158.171 355.856 159.537 355.856C160.943 355.856 162.108 356.338 163.031 357.303C163.955 358.226 164.417 359.331 164.417 360.616C164.417 361.982 163.955 363.127 163.031 364.051C162.108 364.975 160.943 365.437 159.537 365.437ZM155.5 399.359V368.028H163.634V399.359H155.5Z" fill="#1ABB71"/>
<path d="M147.604 399.359C144.511 399.359 142.141 398.596 140.494 397.07C138.847 395.543 138.023 393.073 138.023 389.659V374.957H133.625V368.028H138.023V361.701L146.158 360.857V368.028H152.786V374.957H146.158V389.237C146.158 391.165 147.001 392.129 148.688 392.129H152.063V399.359H147.604Z" fill="#1ABB71"/>
<path d="M120.921 400.143C115.659 400.143 111.321 398.315 107.906 394.659L113.389 389.658C115.679 392.229 118.129 393.515 120.74 393.515C122.146 393.515 123.211 393.213 123.934 392.611C124.697 391.968 125.078 391.185 125.078 390.261C125.078 389.699 124.938 389.217 124.657 388.815C124.416 388.413 123.873 388.032 123.03 387.67C122.226 387.309 121.001 386.947 119.354 386.585C116.543 385.903 114.454 385.059 113.088 384.055C111.722 383.051 110.818 381.926 110.377 380.681C109.935 379.435 109.714 378.15 109.714 376.824C109.714 374.093 110.738 371.823 112.787 370.016C114.876 368.168 117.748 367.244 121.403 367.244C123.934 367.244 126.103 367.626 127.91 368.389C129.718 369.152 131.425 370.578 133.032 372.667L127.127 377.186C126.364 375.981 125.5 375.117 124.536 374.595C123.612 374.073 122.628 373.812 121.584 373.812C120.459 373.812 119.515 374.033 118.752 374.475C118.029 374.916 117.667 375.619 117.667 376.583C117.667 377.106 117.908 377.628 118.39 378.15C118.872 378.632 120.037 379.114 121.885 379.596C124.938 380.359 127.268 381.263 128.874 382.307C130.481 383.312 131.586 384.457 132.188 385.742C132.791 387.027 133.092 388.453 133.092 390.02C133.092 391.948 132.55 393.675 131.465 395.202C130.421 396.728 128.975 397.933 127.127 398.817C125.319 399.701 123.251 400.143 120.921 400.143Z" fill="#1ABB71"/>
<path d="M91.5988 400.143C88.3853 400.143 85.5534 399.399 83.1031 397.913C80.6528 396.427 78.7447 394.459 77.379 392.008C76.0534 389.518 75.3906 386.766 75.3906 383.754C75.3906 380.741 76.0936 377.989 77.4995 375.499C78.9054 372.968 80.8134 370.96 83.2236 369.474C85.6739 367.987 88.4656 367.244 91.5988 367.244C94.732 367.244 97.4835 367.987 99.8535 369.474C102.264 370.96 104.132 372.968 105.457 375.499C106.823 377.989 107.506 380.741 107.506 383.754C107.506 384.195 107.486 384.657 107.445 385.139C107.405 385.621 107.345 386.124 107.265 386.646H83.8261C84.268 388.494 85.1517 390 86.4773 391.165C87.843 392.33 89.5502 392.912 91.5988 392.912C93.3662 392.912 94.8926 392.51 96.1781 391.707C97.5036 390.904 98.5279 389.899 99.251 388.694L105.578 393.454C104.332 395.423 102.464 397.029 99.974 398.275C97.4835 399.52 94.6918 400.143 91.5988 400.143ZM91.4783 374.234C89.5502 374.234 87.9033 374.816 86.5375 375.981C85.1718 377.146 84.268 378.672 83.8261 380.56H99.3112C98.8694 378.833 97.9455 377.347 96.5396 376.101C95.1738 374.856 93.4867 374.234 91.4783 374.234Z" fill="#1ABB71"/>
<path d="M55.8797 399.359L42.8047 368.027H52.4452L58.7116 385.923C59.274 387.529 59.7158 389.196 60.0372 390.924C60.3585 389.196 60.8004 387.529 61.3627 385.923L67.6291 368.027H77.0889L64.0741 399.359H55.8797Z" fill="#1ABB71"/>
<path d="M13.875 399.36V368.028H21.8887V372.607C23.5356 369.072 26.7291 367.305 31.469 367.305C33.7185 367.305 35.747 367.827 37.5546 368.871C39.3622 369.916 40.7882 371.402 41.8326 373.33C42.877 375.258 43.3992 377.548 43.3992 380.199V399.36H35.265V382.187C35.265 379.456 34.6423 377.488 33.3971 376.282C32.1519 375.037 30.525 374.415 28.5166 374.415C26.7893 374.415 25.2629 375.037 23.9373 376.282C22.6519 377.488 22.0092 379.456 22.0092 382.187V399.36H13.875Z" fill="#1ABB71"/>
<path d="M0 399.359V357.182H8.43548V399.359H0Z" fill="#1ABB71"/>
</svg>
