<svg width="691" height="118" viewBox="0 0 691 118" fill="none" xmlns="http://www.w3.org/2000/svg">
<path d="M638.969 53.6156L660.475 0.977539H669.574L691.005 53.6156H679.575L675.966 43.6144H654.008L650.399 53.6156H638.969ZM663.107 20.1528L657.467 34.5155H672.507L666.867 20.1528C666.115 18.1476 665.488 16.1423 664.987 14.1371C664.486 16.2927 663.859 18.298 663.107 20.1528Z" fill="#054CB6"/>
<path d="M619.931 54.5932C616.021 54.5932 612.387 53.8914 609.028 52.4877C605.719 51.084 602.811 49.1289 600.305 46.6223C597.848 44.1157 595.918 41.2332 594.515 37.9746C593.161 34.6659 592.484 31.1317 592.484 27.3718C592.484 23.6119 593.136 20.0777 594.44 16.769C595.793 13.4603 597.673 10.5527 600.079 8.04611C602.536 5.53953 605.443 3.58441 608.802 2.18072C612.161 0.726908 615.871 0 619.931 0C624.243 0 627.927 0.676775 630.985 2.03033C634.094 3.38388 636.826 5.46433 639.182 8.2717L631.737 14.7387C628.579 11.43 624.644 9.77565 619.931 9.77565C616.573 9.77565 613.64 10.5777 611.133 12.182C608.677 13.7862 606.772 15.9168 605.418 18.5737C604.065 21.2307 603.388 24.1634 603.388 27.3718C603.388 30.5802 604.065 33.5129 605.418 36.1699C606.772 38.7767 608.702 40.8822 611.208 42.4864C613.715 44.0405 616.698 44.8176 620.157 44.8176C622.714 44.8176 624.97 44.3914 626.925 43.5392C628.88 42.687 630.634 41.4086 632.189 39.7041L639.859 46.2463C637.853 48.6526 635.171 50.6579 631.813 52.2621C628.504 53.8162 624.543 54.5932 619.931 54.5932Z" fill="#054CB6"/>
<path d="M557.438 53.6156V0.977539H588.268V10.4524H567.965V22.2584H587.892V31.4324H567.965V44.1408H588.419V53.6156H557.438Z" fill="#054CB6"/>
<path d="M526.953 53.6156V10.4524H511.914V0.977539H552.521V10.4524H537.481V53.6156H526.953Z" fill="#054CB6"/>
<path d="M485.916 54.5932C482.005 54.5932 478.371 53.8914 475.012 52.4877C471.703 51.084 468.796 49.1289 466.289 46.6223C463.833 44.1157 461.903 41.2332 460.499 37.9746C459.146 34.6659 458.469 31.1317 458.469 27.3718C458.469 23.6119 459.146 20.0777 460.499 16.769C461.903 13.4603 463.833 10.5527 466.289 8.04611C468.796 5.53953 471.703 3.58441 475.012 2.18072C478.371 0.726908 482.005 0 485.916 0C489.826 0 493.435 0.726908 496.744 2.18072C500.053 3.58441 502.935 5.53953 505.392 8.04611C507.848 10.5527 509.753 13.4603 511.107 16.769C512.51 20.0777 513.212 23.6119 513.212 27.3718C513.212 31.1317 512.51 34.6659 511.107 37.9746C509.753 41.2332 507.848 44.1157 505.392 46.6223C502.935 49.1289 500.053 51.084 496.744 52.4877C493.435 53.8914 489.826 54.5932 485.916 54.5932ZM485.916 44.8176C489.325 44.8176 492.232 44.0405 494.639 42.4864C497.095 40.8822 498.975 38.7516 500.278 36.0947C501.632 33.4377 502.309 30.5301 502.309 27.3718C502.309 24.1634 501.632 21.2307 500.278 18.5737C498.975 15.9168 497.095 13.7862 494.639 12.182C492.232 10.5777 489.325 9.77565 485.916 9.77565C482.507 9.77565 479.549 10.5777 477.042 12.182C474.586 13.7862 472.681 15.9168 471.327 18.5737C470.024 21.2307 469.372 24.1634 469.372 27.3718C469.372 30.5301 470.024 33.4377 471.327 36.0947C472.681 38.7516 474.586 40.8822 477.042 42.4864C479.549 44.0405 482.507 44.8176 485.916 44.8176Z" fill="#054CB6"/>
<path d="M442.281 53.6156V0.977539H452.809V53.6156H442.281Z" fill="#054CB6"/>
<path d="M417.645 54.5932C413.484 54.5932 409.649 53.7159 406.14 51.9613C402.681 50.1566 399.798 47.2489 397.492 43.2384L406.591 37.4482C407.945 40.1553 409.649 42.1355 411.704 43.3888C413.76 44.592 415.941 45.1935 418.247 45.1935C420.703 45.1935 422.633 44.6421 424.037 43.5392C425.44 42.4363 426.142 40.9825 426.142 39.1778C426.142 37.4232 425.591 36.0195 424.488 34.9667C423.385 33.914 421.906 33.0617 420.051 32.41C418.247 31.7583 416.266 31.1567 414.111 30.6053C410.05 29.5525 406.817 27.823 404.41 25.4167C402.004 22.9602 400.801 19.7518 400.801 15.7914C400.801 12.6331 401.578 9.8759 403.132 7.51972C404.686 5.16354 406.842 3.33374 409.599 2.03032C412.406 0.726904 415.665 0.0751953 419.375 0.0751953C423.485 0.0751953 426.919 0.92743 429.677 2.6319C432.434 4.33637 434.79 6.74268 436.745 9.85084L427.721 15.4154C426.468 13.36 425.165 11.8561 423.811 10.9036C422.458 9.9511 420.803 9.47485 418.848 9.47485C416.743 9.47485 414.988 10.0012 413.584 11.054C412.231 12.1068 411.554 13.5104 411.554 15.265C411.554 17.2202 412.356 18.6489 413.96 19.5513C415.615 20.4035 417.595 21.1806 419.901 21.8824C421.455 22.3837 423.185 22.9853 425.09 23.6871C427.045 24.3388 428.925 25.2663 430.729 26.4694C432.534 27.6224 434.013 29.1765 435.166 31.1317C436.319 33.0868 436.896 35.5683 436.896 38.5762C436.896 41.7345 436.119 44.5168 434.564 46.9231C433.01 49.3294 430.805 51.2093 427.947 52.5629C425.09 53.9164 421.656 54.5932 417.645 54.5932Z" fill="#054CB6"/>
<path d="M373.759 53.6156V32.4852L355.938 0.977539H367.518L375.79 16.0922C376.441 17.2953 377.093 18.5486 377.745 19.8521C378.447 21.1555 378.973 22.4589 379.324 23.7623C379.675 22.4589 380.151 21.1805 380.753 19.9272C381.404 18.6238 382.056 17.3455 382.708 16.0922L390.603 0.977539H402.109L384.287 32.7108V53.6156H373.759Z" fill="#054CB6"/>
<path d="M311.273 53.6156V0.977539H321.801V22.1832H343.608V0.977539H354.136V53.6156H343.608V31.658H321.801V53.6156H311.273Z" fill="#054CB6"/>
<path d="M270.008 53.6156V0.977539H287.754C293.67 0.977539 298.307 2.38122 301.666 5.18858C305.075 7.94582 306.779 12.0817 306.779 17.5961C306.779 23.1607 305.075 27.3718 301.666 30.2293C298.307 33.0868 293.67 34.5155 287.754 34.5155H280.535V53.6156H270.008ZM280.535 25.0407H287.153C290.01 25.0407 292.216 24.4391 293.77 23.2359C295.324 22.0328 296.101 20.1779 296.101 17.6713C296.101 15.1648 295.324 13.335 293.77 12.1819C292.216 10.9788 290.01 10.3772 287.153 10.3772H280.535V25.0407Z" fill="#054CB6"/>
<path d="M665.164 106.22V67.7217H672.284V82.5936C673.76 79.6403 676.52 78.1636 680.563 78.1636C682.532 78.1636 684.308 78.6207 685.89 79.5348C687.472 80.4489 688.72 81.7498 689.634 83.4374C690.548 85.1249 691.005 87.129 691.005 89.4494V106.22H683.886V91.1897C683.886 88.799 683.341 87.0762 682.251 86.0215C681.161 84.9316 679.737 84.3866 677.979 84.3866C676.467 84.3866 675.131 84.9316 673.971 86.0215C672.846 87.0762 672.284 88.799 672.284 91.1897V106.22H665.164Z" fill="#1ABB71"/>
<path d="M658.243 106.221C655.536 106.221 653.461 105.553 652.02 104.217C650.578 102.881 649.858 100.718 649.858 97.7299V84.862H646.008V78.7972H649.858V73.2598L656.977 72.5215V78.7972H662.778V84.862H656.977V97.3607C656.977 99.0483 657.715 99.8921 659.192 99.8921H662.145V106.221H658.243Z" fill="#1ABB71"/>
<path d="M636.539 106.22V67.7217H643.659V106.22H636.539Z" fill="#1ABB71"/>
<path d="M616.53 106.907C614.034 106.907 611.749 106.274 609.674 105.008C607.635 103.707 606 101.985 604.77 99.84C603.574 97.6602 602.977 95.2519 602.977 92.615C602.977 90.6462 603.328 88.8004 604.031 87.0776C604.734 85.3197 605.701 83.7903 606.932 82.4895C608.162 81.1535 609.586 80.1163 611.204 79.378C612.856 78.6045 614.631 78.2178 616.53 78.2178C618.921 78.2178 620.784 78.6748 622.12 79.5889C623.456 80.4679 624.493 81.6457 625.232 83.1223V78.7979H632.298V106.221H625.39V101.739C624.652 103.286 623.597 104.534 622.226 105.483C620.89 106.432 618.991 106.907 616.53 106.907ZM617.69 100.473C619.272 100.473 620.626 100.121 621.751 99.4181C622.911 98.6798 623.808 97.7129 624.441 96.5176C625.073 95.3222 625.39 94.0213 625.39 92.615C625.39 91.1735 625.073 89.8551 624.441 88.6597C623.808 87.4644 622.911 86.4975 621.751 85.7592C620.626 85.0209 619.272 84.6517 617.69 84.6517C616.178 84.6517 614.842 85.0209 613.682 85.7592C612.557 86.4624 611.678 87.4116 611.045 88.607C610.412 89.8024 610.096 91.1208 610.096 92.5623C610.096 93.9334 610.412 95.2343 611.045 96.4648C611.678 97.6602 612.557 98.6271 613.682 99.3654C614.842 100.104 616.178 100.473 617.69 100.473Z" fill="#1ABB71"/>
<path d="M587.35 106.906C584.538 106.906 582.059 106.255 579.914 104.955C577.77 103.654 576.1 101.931 574.904 99.7863C573.744 97.6065 573.164 95.1982 573.164 92.5613C573.164 89.9245 573.779 87.5161 575.01 85.3363C576.24 83.1214 577.91 81.3635 580.02 80.0626C582.165 78.7618 584.608 78.1113 587.35 78.1113C590.093 78.1113 592.501 78.7618 594.575 80.0626C596.685 81.3635 598.32 83.1214 599.48 85.3363C600.675 87.5161 601.273 89.9245 601.273 92.5613C601.273 92.9481 601.255 93.3524 601.22 93.7743C601.185 94.1962 601.132 94.6356 601.062 95.0927H580.547C580.934 96.71 581.707 98.0284 582.868 99.048C584.063 100.068 585.557 100.577 587.35 100.577C588.897 100.577 590.233 100.226 591.358 99.5226C592.519 98.8195 593.415 97.9405 594.048 96.8858L599.585 101.052C598.495 102.775 596.861 104.181 594.681 105.271C592.501 106.361 590.058 106.906 587.35 106.906ZM587.245 84.2288C585.557 84.2288 584.116 84.7386 582.92 85.7582C581.725 86.7778 580.934 88.1138 580.547 89.7662H594.101C593.714 88.2544 592.905 86.9536 591.675 85.8637C590.479 84.7738 589.003 84.2288 587.245 84.2288Z" fill="#1ABB71"/>
<path d="M539.406 106.22V69.3037H546.789V84.1756H562.083V69.3037H569.466V106.22H562.083V90.8205H546.789V106.22H539.406Z" fill="#1ABB71"/>
<path d="M500.414 106.22V78.7969H507.428V82.8049C508.87 79.711 511.665 78.1641 515.813 78.1641C517.782 78.1641 519.558 78.6211 521.14 79.5352C522.722 80.4493 523.97 81.7502 524.884 83.4378C525.798 85.1254 526.255 87.1294 526.255 89.4498V106.22H519.136V91.1901C519.136 88.7994 518.591 87.0766 517.501 86.0219C516.411 84.932 514.987 84.387 513.229 84.387C511.717 84.387 510.381 84.932 509.221 86.0219C508.096 87.0766 507.534 88.7994 507.534 91.1901V106.22H500.414Z" fill="#1ABB71"/>
<path d="M488.266 106.22V69.3037H495.649V106.22H488.266Z" fill="#1ABB71"/>
<path d="M460.608 117.453C457.831 117.453 455.352 117.067 453.172 116.293C451.028 115.555 449.129 114.219 447.477 112.285L451.907 107.064C453.207 108.541 454.561 109.543 455.967 110.07C457.374 110.597 458.938 110.861 460.661 110.861C461.927 110.861 463.104 110.545 464.194 109.912C465.284 109.279 466.146 108.382 466.778 107.222C467.446 106.097 467.78 104.814 467.78 103.372V102.159C467.042 103.425 466.023 104.445 464.722 105.218C463.456 105.992 461.716 106.378 459.501 106.378C457.004 106.378 454.737 105.746 452.698 104.48C450.694 103.214 449.111 101.527 447.951 99.4171C446.791 97.2725 446.211 94.8818 446.211 92.2449C446.211 89.608 446.791 87.2173 447.951 85.0726C449.111 82.928 450.694 81.2404 452.698 80.0099C454.737 78.7442 457.004 78.1113 459.501 78.1113C461.786 78.1113 463.561 78.5156 464.827 79.3243C466.128 80.1329 467.148 81.2052 467.886 82.5413V78.7969H474.9V103.794C474.9 106.607 474.285 109.033 473.054 111.072C471.859 113.111 470.189 114.676 468.044 115.766C465.899 116.891 463.421 117.453 460.608 117.453ZM460.661 99.8918C463.017 99.8918 464.845 99.1535 466.146 97.6768C467.446 96.2002 468.097 94.3895 468.097 92.2449C468.097 90.1002 467.446 88.2896 466.146 86.813C464.845 85.3363 463.017 84.598 460.661 84.598C458.34 84.598 456.53 85.3363 455.229 86.813C453.963 88.2896 453.33 90.1002 453.33 92.2449C453.33 93.6161 453.612 94.8818 454.174 96.042C454.772 97.2022 455.616 98.1339 456.706 98.837C457.796 99.5402 459.114 99.8918 460.661 99.8918Z" fill="#1ABB71"/>
<path d="M417.445 106.22V78.7969H424.459V82.8049C425.901 79.711 428.696 78.1641 432.845 78.1641C434.813 78.1641 436.589 78.6211 438.171 79.5352C439.753 80.4493 441.001 81.7502 441.915 83.4378C442.829 85.1254 443.287 87.1294 443.287 89.4498V106.22H436.167V91.1901C436.167 88.7994 435.622 87.0766 434.532 86.0219C433.442 84.932 432.018 84.387 430.26 84.387C428.749 84.387 427.413 84.932 426.252 86.0219C425.127 87.0766 424.565 88.7994 424.565 91.1901V106.22H417.445Z" fill="#1ABB71"/>
<path d="M409.647 76.5297C408.451 76.5297 407.432 76.1254 406.588 75.3168C405.779 74.473 405.375 73.471 405.375 72.3108C405.375 71.1857 405.779 70.2189 406.588 69.4102C407.432 68.5664 408.451 68.1445 409.647 68.1445C410.877 68.1445 411.897 68.5664 412.705 69.4102C413.514 70.2189 413.918 71.1857 413.918 72.3108C413.918 73.5061 413.514 74.5082 412.705 75.3168C411.897 76.1254 410.877 76.5297 409.647 76.5297ZM406.113 106.221V78.7974H413.233V106.221H406.113Z" fill="#1ABB71"/>
<path d="M399.204 106.221C396.497 106.221 394.422 105.553 392.981 104.217C391.539 102.881 390.819 100.718 390.819 97.7299V84.862H386.969V78.7972H390.819V73.2598L397.938 72.5215V78.7972H403.739V84.862H397.938V97.3607C397.938 99.0483 398.676 99.8921 400.153 99.8921H403.106V106.221H399.204Z" fill="#1ABB71"/>
<path d="M375.844 106.906C371.239 106.906 367.442 105.306 364.453 102.107L369.252 97.7296C371.256 99.9797 373.401 101.105 375.686 101.105C376.917 101.105 377.848 100.841 378.481 100.314C379.149 99.7512 379.483 99.0656 379.483 98.2569C379.483 97.7647 379.36 97.3428 379.114 96.9912C378.903 96.6397 378.428 96.3057 377.69 95.9892C376.987 95.6728 375.915 95.3564 374.473 95.04C372.012 94.4423 370.184 93.704 368.989 92.825C367.793 91.946 367.002 90.9616 366.615 89.8717C366.229 88.7818 366.035 87.6568 366.035 86.4965C366.035 84.1058 366.932 82.1194 368.725 80.5372C370.553 78.92 373.067 78.1113 376.266 78.1113C378.481 78.1113 380.38 78.4453 381.962 79.1133C383.544 79.7813 385.038 81.0295 386.445 82.8577L381.276 86.813C380.608 85.7582 379.852 85.0023 379.009 84.5453C378.2 84.0882 377.339 83.8597 376.424 83.8597C375.44 83.8597 374.614 84.0531 373.946 84.4398C373.313 84.8265 372.997 85.4418 372.997 86.2856C372.997 86.7426 373.208 87.1997 373.629 87.6568C374.051 88.0787 375.071 88.5006 376.688 88.9225C379.36 89.5905 381.399 90.3815 382.806 91.2956C384.212 92.1746 385.179 93.1766 385.706 94.3016C386.234 95.4267 386.497 96.6748 386.497 98.046C386.497 99.7336 386.023 101.245 385.073 102.581C384.159 103.917 382.894 104.972 381.276 105.746C379.694 106.519 377.884 106.906 375.844 106.906Z" fill="#1ABB71"/>
<path d="M350.178 106.906C347.366 106.906 344.887 106.255 342.743 104.955C340.598 103.654 338.928 101.931 337.733 99.7863C336.572 97.6065 335.992 95.1982 335.992 92.5613C335.992 89.9245 336.607 87.5161 337.838 85.3363C339.069 83.1214 340.739 81.3635 342.848 80.0626C344.993 78.7618 347.436 78.1113 350.178 78.1113C352.921 78.1113 355.329 78.7618 357.403 80.0626C359.513 81.3635 361.148 83.1214 362.308 85.3363C363.503 87.5161 364.101 89.9245 364.101 92.5613C364.101 92.9481 364.084 93.3524 364.048 93.7743C364.013 94.1962 363.96 94.6356 363.89 95.0927H343.375C343.762 96.71 344.536 98.0284 345.696 99.048C346.891 100.068 348.385 100.577 350.178 100.577C351.725 100.577 353.061 100.226 354.187 99.5226C355.347 98.8195 356.243 97.9405 356.876 96.8858L362.414 101.052C361.324 102.775 359.689 104.181 357.509 105.271C355.329 106.361 352.886 106.906 350.178 106.906ZM350.073 84.2288C348.385 84.2288 346.944 84.7386 345.749 85.7582C344.553 86.7778 343.762 88.1138 343.375 89.7662H356.929C356.542 88.2544 355.733 86.9536 354.503 85.8637C353.308 84.7738 351.831 84.2288 350.073 84.2288Z" fill="#1ABB71"/>
<path d="M318.913 106.22L307.469 78.7969H315.907L321.391 94.4598C321.884 95.8661 322.27 97.3252 322.552 98.837C322.833 97.3252 323.22 95.8661 323.712 94.4598L329.196 78.7969H337.476L326.085 106.22H318.913Z" fill="#1ABB71"/>
<path d="M282.156 106.22V78.7969H289.17V82.8049C290.612 79.711 293.407 78.1641 297.556 78.1641C299.524 78.1641 301.3 78.6211 302.882 79.5352C304.464 80.4493 305.712 81.7502 306.626 83.4378C307.54 85.1254 307.997 87.1294 307.997 89.4498V106.22H300.878V91.1901C300.878 88.7994 300.333 87.0766 299.243 86.0219C298.153 84.932 296.729 84.387 294.971 84.387C293.46 84.387 292.124 84.932 290.963 86.0219C289.838 87.0766 289.276 88.7994 289.276 91.1901V106.22H282.156Z" fill="#1ABB71"/>
<path d="M270.008 106.22V69.3037H277.391V106.22H270.008Z" fill="#1ABB71"/>
<path d="M123.705 25.9329C124.962 26.266 126.976 29.2517 126.976 31.3695C126.976 32.1146 127.16 32.8384 127.385 32.9776C127.401 32.9877 127.424 32.994 127.455 32.9967C127.955 32.9588 129.399 32.4174 130.95 31.6731L131.227 31.5386L131.228 31.5383C133.226 30.5784 134.082 30.1675 134.642 30.1863C134.779 30.1804 134.898 30.1978 135.009 30.237C135.282 30.3335 135.51 30.5626 135.847 30.9022C135.873 30.9289 135.901 30.9564 135.929 30.9845C136.68 31.7393 136.777 32.53 136.486 35.5003C136.168 38.737 136.297 39.4831 137.76 42.8781C138.654 44.9554 139.395 47.0752 139.406 47.588C139.432 48.8551 137.782 49.6463 135.113 49.6463C132.484 49.6463 129.659 50.7426 127.427 52.6296C126.377 53.5171 125.626 53.9473 125.007 53.9261C124.478 53.9441 124.047 53.6451 123.616 53.0326L123.616 25.9054C123.645 25.9132 123.675 25.9223 123.705 25.9329Z" fill="#054CB6"/>
<path d="M208.817 45.3867C207.291 44.1038 206.469 43.5747 205.954 43.606C205.751 43.5945 205.593 43.6608 205.459 43.7951C205.113 44.1426 204.832 44.6835 204.832 44.997C204.833 45.5224 210.171 47.9101 211.07 47.8386C211.168 47.8443 211.235 47.8329 211.266 47.8017C211.372 47.6957 210.269 46.6086 208.817 45.3867Z" fill="#054CB6"/>
<path d="M200.319 40.9454C199.277 40.6001 198.424 39.9981 198.424 39.6082C198.424 38.6739 195.353 35.6808 194.042 35.3361C193.847 35.2847 193.683 35.2612 193.548 35.268C193.101 35.2505 192.923 35.506 192.923 36.1018C192.923 36.6727 192.679 37.1391 192.382 37.1391C192.084 37.1391 191.84 37.8236 191.84 38.661C191.84 39.4984 191.552 40.473 191.2 40.827C190.269 41.7624 190.756 42.021 195.164 42.9381C196.104 43.1341 197.052 43.3575 197.869 43.5717C198.424 43.7167 198.919 43.8578 199.309 43.9832C199.676 44.1008 199.95 44.2027 200.097 44.2824C200.483 44.4898 200.822 44.5863 201.105 44.5761C201.815 44.6041 202.213 44.0115 202.213 42.8591C202.213 41.8721 201.773 41.4278 200.319 40.9454Z" fill="#054CB6"/>
<path d="M189.628 35.789C189.256 35.6634 187.917 35.2947 186.651 34.9695C185.006 34.5465 184.351 34.0967 184.351 33.3903C184.351 31.3304 180.544 28.4379 177.832 28.4379C177.8 28.4379 177.769 28.4381 177.74 28.4385C177.329 28.4387 177.094 28.4729 177.011 28.6214C176.939 28.7508 176.979 28.9637 177.117 29.3138L177.176 29.4614L177.223 29.5712L177.326 29.8024C177.782 30.8057 177.787 31.4876 177.345 32.3851C176.809 33.4773 176.63 34.4205 176.036 39.2972C175.889 40.5096 176.112 40.6768 178.323 41.0021C178.53 41.0321 178.775 41.0648 179.05 41.0974L179.7 41.168C179.943 41.1941 180.201 41.2202 180.468 41.245L180.962 41.2895C181.413 41.33 181.883 41.3692 182.358 41.4057C183.199 41.4697 184.05 41.5246 184.818 41.5625C185.929 41.617 186.734 41.6546 187.315 41.6534C188.895 41.6602 188.903 41.408 188.776 40.5033C188.68 39.811 188.985 38.6576 189.453 37.9393C190.482 36.3622 190.504 36.0843 189.628 35.789Z" fill="#054CB6"/>
<path d="M173.218 31.1428C172.707 30.9476 171.831 30.845 170.956 30.8545C170.493 30.8556 170.026 30.888 169.611 30.9546C169.021 31.0496 168.594 31.1156 168.286 31.1246C167.592 31.1179 167.571 30.757 167.571 29.637C167.571 26.709 163.791 23.7462 160.561 23.7865C160.146 23.7847 159.739 23.8318 159.35 23.9341C158.039 24.2777 158.024 24.6356 159.228 26.7507C160.03 28.1564 160.067 28.5888 159.47 29.5542C158.913 30.4517 158.892 31.293 159.37 33.5086C159.649 34.8033 159.756 35.6968 159.675 36.627C159.612 37.339 159.439 38.0718 159.147 39.0216C158.935 39.7114 158.791 40.2796 158.715 40.7329C158.588 41.4867 158.646 41.9231 158.888 42.0733C158.994 42.1393 159.266 42.1691 159.65 42.1664C160.394 42.1713 161.62 42.0411 162.882 41.8063C164.092 41.581 165.573 41.4594 166.882 41.458C167.599 41.4603 168.262 41.4995 168.795 41.5782C169.657 41.7052 170.373 41.7722 170.961 41.7657C173.121 41.7686 173.611 40.83 173.285 38.3188C173.055 36.5449 173.205 35.31 173.782 34.2218C174.899 32.1146 174.834 31.7605 173.218 31.1428Z" fill="#054CB6"/>
<path d="M155.908 29.1682C155.67 29.0767 155.297 29.0344 154.806 29.0394C153.643 29.0374 151.776 29.3176 149.485 29.8507C149.128 29.9336 148.857 29.9902 148.65 29.9985C148.124 29.98 148.086 29.5553 148.086 28.2378C148.086 25.1876 145.776 22.9308 142.313 22.5963C141.903 22.5567 141.483 22.5387 141.074 22.5401C139.911 22.5361 138.83 22.6898 138.337 22.9556L137.179 23.5775L138.613 25.7565C139.896 27.703 139.985 28.1394 139.453 29.8782C138.955 31.5125 139.041 32.2702 139.99 34.6177C140.864 36.7733 141.101 38.4376 141.028 41.9087C140.953 45.4709 141.104 46.851 142.443 46.817C143.158 46.8336 144.233 46.4079 145.833 45.6716C147.625 44.8472 150.412 44.1202 152.545 43.9206C154.552 43.733 156.348 43.3273 156.538 43.0195C156.727 42.7117 156.455 41.0422 155.933 39.3096C155.047 36.3709 155.043 35.9859 155.865 33.5616C156.96 30.3309 156.968 29.5772 155.908 29.1682Z" fill="#054CB6"/>
<path d="M121.54 64.3454L111.745 98.412C111.773 98.3903 123.567 93.8255 123.595 93.8033L123.599 93.8631C123.959 93.5873 124.325 93.2676 124.689 92.9084C125.744 91.869 126.724 90.9956 126.992 90.8511C127.17 90.9903 127.628 92.1242 128.054 93.4977C129.639 98.6138 134.425 102.412 138.909 102.113C138.919 102.112 138.929 102.111 138.939 102.11L138.958 102.109C138.971 102.108 138.985 102.107 138.998 102.106C140.677 101.994 143.271 99.7091 143.185 98.4175C143.133 97.6457 141.997 95.9655 139.865 93.5105C138.023 91.3883 137.927 91.0967 137.97 87.7187C138.015 84.2642 137.929 84.0247 135.049 79.5062L132.083 74.8539L131.346 68.3875C130.721 62.896 130.447 61.8199 129.536 61.2374C128.893 60.8271 128.368 60.6194 127.743 60.6742C126.789 60.7205 125.622 61.3874 123.436 62.8956C122.679 63.4183 122.052 63.8958 121.54 64.3454Z" fill="#1ABB71"/>
<path d="M133.828 62.9824C134.613 64.2636 136.022 66.462 136.959 67.8663C138.507 70.1865 138.728 71.0263 139.367 77.0353C139.802 81.1283 140.398 84.2036 140.929 85.1022C141.517 86.0962 142.329 86.5542 143.41 86.4689C144.69 86.4023 146.355 85.5538 148.483 83.9109L151.513 81.5728L152.088 84.7235C152.795 88.6002 153.933 90.5982 156.947 93.2547C158.533 94.6522 160.032 95.2804 161.603 95.1559C162.6 95.0948 163.624 94.7295 164.717 94.0641C166.668 92.8765 166.615 91.4641 164.458 87.1348C162.895 84.0011 162.862 83.799 163.541 81.569C164.486 78.4684 164.251 75.9923 162.654 72.2136C161.028 68.3669 160.691 64.6979 161.55 60.1857C162.404 55.7002 162.254 54.1374 160.852 52.902C160.125 52.2616 159.306 51.9674 158.081 52.0615C156.596 52.1542 154.508 52.8334 151.229 54.1772C148.132 55.4471 146.84 55.9334 145.234 56.0518C144.383 56.1071 143.434 56.0629 142.079 55.9796C140.674 55.8929 139.449 55.8846 138.387 55.9587C135.714 56.1322 134.064 56.8176 133.184 58.0752C132.053 59.6895 132.12 60.19 133.828 62.9824Z" fill="#1ABB71"/>
<path d="M165.791 58.3043C167.656 63.2294 168.163 68.2088 167.266 72.7799C166.34 77.5011 166.649 79.7547 168.355 80.7247C169.035 81.1108 169.447 81.2942 170.063 81.2385C170.666 81.2057 171.455 80.9304 172.917 80.375C174.589 79.7387 176.601 79.052 177.385 78.8507L178.724 78.5068L178.647 81.789C178.538 86.5138 179.252 88.7069 181.56 90.7415C183.229 92.2116 185.031 92.8951 186.784 92.7624C187.671 92.709 188.547 92.4468 189.386 91.9719L191.15 90.9749L190.553 86.7458C189.959 82.5493 189.967 82.5027 191.534 80.7989C193.1 79.0938 193.109 79.0405 192.737 73.4635L192.362 67.8458L194.795 63.4803C196.133 61.0785 197.216 58.9338 197.201 58.712C197.169 58.2289 195.943 56.8381 194.853 55.9089C194.425 55.5433 194.017 55.2488 193.711 55.1097C193.152 54.8543 189.688 54.454 186.014 54.2206C180.805 53.888 178.335 53.4293 174.798 52.1373C171.674 50.996 169.411 50.4874 167.792 50.6083C166.499 50.6853 165.606 51.1522 165.008 52.0074C164.925 52.1264 164.847 52.2338 164.776 52.3324L164.775 52.3333L164.775 52.3337C164.53 52.6721 164.358 52.91 164.275 53.1759C164.079 53.8049 164.378 54.5906 165.384 57.2339L165.386 57.2385C165.51 57.5645 165.645 57.9187 165.791 58.3043Z" fill="#1ABB71"/>
<path d="M196.1 82.0373C197.053 82.877 198.413 83.3509 200.194 83.4642C200.609 83.4906 201.001 83.5149 201.37 83.5379L201.388 83.5391L201.389 83.5391C205.269 83.7807 206.663 83.8676 206.917 84.4526C207.06 84.7806 206.843 85.2651 206.506 86.0214C206.448 86.1518 206.386 86.2903 206.322 86.4375C204.184 91.3416 207.67 96.0817 214.199 97.1469C215.466 97.3538 216.4 97.4491 217.064 97.3941C218.554 97.3033 218.765 96.5149 218.336 94.633C217.748 92.0502 218.432 90.798 220.528 90.6283C220.574 90.6252 220.619 90.622 220.663 90.6187C222.058 90.5213 222.141 90.3267 222.305 87.3542C222.557 82.7903 222.789 82.3133 225.655 80.4991C227.56 79.2935 228.259 78.5007 228.304 77.4865C228.393 75.5491 225.524 72.6872 220.889 70.0908C218.779 68.9079 214.535 65.9717 211.458 63.5666C205.163 58.6469 203.801 57.7472 202.177 57.8875C201.987 57.8993 201.795 57.9263 201.593 57.9634C200.136 58.2313 200.081 58.3684 200.168 61.5286C200.375 69.0554 200.119 70.3715 197.558 74.9669L197.476 75.1134C195.403 78.8329 194.743 80.0173 195.046 80.8467C195.188 81.2342 195.54 81.5443 196.057 81.9992L196.1 82.0373Z" fill="#1ABB71"/>
<path d="M224.813 93.5265C225.328 94.1705 227.434 95.4228 229.494 96.3099C235.07 98.7103 235.506 99.0642 234.72 100.545C234.132 101.651 234.256 101.937 236.03 103.55C238.237 105.557 244.956 108.755 246.72 108.637C246.739 108.636 246.759 108.634 246.778 108.633C246.788 108.632 246.798 108.632 246.808 108.631C249.717 108.437 248.729 105.695 241.066 92.7033C235.197 82.7535 233.381 80.172 231.938 79.7225C231.744 79.6621 231.573 79.6378 231.42 79.6562C230.61 79.6695 230.299 80.7441 230.131 83.7047C229.952 86.8558 229.406 87.6523 226.017 89.7154C223.584 91.1965 223.405 91.7645 224.813 93.5265Z" fill="#1ABB71"/>
<path d="M125.328 53.8959L125.328 27.3036C125.328 27.3036 121.414 21.5574 121.027 21.8895C119.905 22.8504 118.869 23.6517 118.592 23.7774C118.423 23.6274 118.042 22.4727 117.708 21.0823C116.468 15.9036 111.945 11.82 107.451 11.82C107.441 11.82 107.431 11.82 107.421 11.8202L107.402 11.8205C107.389 11.8205 107.375 11.8204 107.362 11.8204C105.679 11.8204 102.939 13.915 102.939 15.2016C102.939 15.9704 103.96 17.712 105.924 20.2878C107.621 22.5144 107.697 22.8099 107.429 26.1571C107.155 29.5802 107.224 29.8234 109.797 34.495L112.447 39.3053L112.751 45.767C113.009 51.2545 113.211 52.3398 114.081 52.9778C114.695 53.4273 115.205 53.668 115.833 53.6551C116.787 53.6722 117.997 53.0881 120.278 51.7371C121.068 51.2688 123.609 54.3071 125.328 53.8959Z" fill="#054CB6"/>
<path d="M111.277 53.4696C110.579 52.147 109.32 49.8736 108.478 48.4188C107.088 46.0153 106.924 45.1678 106.686 39.1662C106.525 35.0782 106.135 31.989 105.665 31.0626C105.145 30.0379 104.365 29.53 103.28 29.543C101.999 29.5243 100.282 30.2556 98.0489 31.744L94.8693 33.8622L94.5059 30.6996C94.0585 26.8081 93.0565 24.7513 90.2257 21.9173C88.7364 20.4264 87.2823 19.7041 85.7068 19.7235C84.7082 19.7182 83.6617 20.0127 82.5271 20.6002C80.5011 21.6489 80.4599 23.0531 82.324 27.4894C83.6747 30.7007 83.6943 30.9033 82.8677 33.0698C81.7188 36.0823 81.7882 38.5535 83.1304 42.4067C84.4961 46.3292 84.5884 49.9901 83.4303 54.4082C82.2795 58.8001 82.3253 60.3599 83.6419 61.6779C84.3244 62.3611 85.1219 62.707 86.3509 62.6948C87.838 62.7011 89.967 62.1658 93.3278 61.0501C96.5032 59.9957 97.824 59.5989 99.435 59.5879C100.288 59.5894 101.231 59.696 102.578 59.8683C103.974 60.0473 105.196 60.1366 106.26 60.1335C108.939 60.1383 110.631 59.5677 111.593 58.3788C112.828 56.8527 112.796 56.352 111.277 53.4696Z" fill="#054CB6"/>
<path d="M79.0736 55.9933C77.541 50.9855 77.3665 46.0136 78.5658 41.5398C79.8048 36.9189 79.6466 34.6635 78.008 33.5886C77.3552 33.1606 76.9568 32.9514 76.3388 32.966C75.7345 32.9585 74.9293 33.1793 73.4336 33.6334C71.7227 34.1538 69.6699 34.7016 68.8734 34.8493L67.5152 35.1018L67.81 31.8518C68.2335 27.1733 67.6676 24.951 65.5 22.7805C63.9329 21.2121 62.18 20.4149 60.4225 20.4306C59.5334 20.4247 58.6424 20.6268 57.7729 21.0422L55.9467 21.9143L56.2611 26.1479C56.5735 30.3489 56.5631 30.3947 54.8862 31.9807C53.2094 33.568 53.1969 33.6203 53.1969 39.1758L53.1969 44.7719L50.4786 48.9402C48.9832 51.2336 47.7603 53.289 47.7603 53.5099C47.7603 53.9911 48.8909 55.4516 49.9166 56.4453C50.3195 56.8362 50.7066 57.1552 51.0027 57.3134C51.5437 57.6037 54.9733 58.23 58.6237 58.7046C63.7983 59.3793 66.233 59.9977 69.6757 61.5131C72.7171 62.8518 74.9407 63.5059 76.5648 63.4933C77.8601 63.5025 78.7816 63.0985 79.4356 62.2899C79.5266 62.1775 79.6112 62.0762 79.6889 61.983L79.6896 61.9822L79.6898 61.9818C79.9563 61.6624 80.1436 61.4378 80.2443 61.1796C80.4825 60.5689 80.2364 59.7699 79.4081 57.0817L79.4067 57.0771C79.3045 56.7456 79.1936 56.3854 79.0736 55.9933Z" fill="#054CB6"/>
<path d="M50.4123 30.4503C49.518 29.5544 48.192 28.9944 46.4224 28.7642C46.01 28.7106 45.6209 28.6605 45.2542 28.6132L45.2361 28.6109L45.2354 28.6108C41.3796 28.1143 39.9944 27.936 39.7801 27.339C39.66 27.0043 39.9079 26.538 40.2948 25.8103C40.3615 25.6848 40.4324 25.5516 40.5062 25.4099C42.9663 20.6878 39.8038 15.7562 33.3604 14.2676C32.11 13.9786 31.1842 13.8222 30.5177 13.8328C29.0248 13.8242 28.7617 14.5921 29.0643 16.4869C29.4796 19.0872 28.7138 20.2838 26.6106 20.3133C26.5643 20.3134 26.5194 20.3135 26.4759 20.314C25.0774 20.3182 24.9809 20.5057 24.6194 23.4427C24.0646 27.9523 23.8006 28.4099 20.8203 30.0194C18.8396 31.089 18.0896 31.829 17.9769 32.8319C17.7595 34.7474 20.4313 37.7755 24.8827 40.6572C26.9093 41.97 30.9488 45.1629 33.8584 47.7517C39.8116 53.0474 41.1107 54.0298 42.741 53.9983C42.9308 53.999 43.1239 53.985 43.3284 53.9616C44.8001 53.7923 44.8637 53.66 44.9876 50.5202C45.2828 43.0419 45.6259 41.7537 48.4872 37.3658L48.5784 37.2258C50.8944 33.6744 51.6319 32.5435 51.3844 31.7008C51.2687 31.3071 50.9381 30.9763 50.4529 30.4909L50.4123 30.4503Z" fill="#054CB6"/>
<path d="M22.5284 17.1555C22.0576 16.4828 20.0395 15.1014 18.0432 14.0853C12.6398 11.3357 12.2277 10.9558 13.1111 9.53903C13.7717 8.48097 13.6662 8.18924 12.0042 6.47262C9.93507 4.33583 3.44432 0.719721 1.67687 0.719721C1.65718 0.719721 1.63766 0.719848 1.6183 0.720105C1.608 0.719874 1.59785 0.719758 1.58785 0.719758C-1.32696 0.719758 -0.523908 3.50472 6.25678 16.8961C11.4504 27.1521 13.0899 29.8325 14.5001 30.3738C14.689 30.4465 14.8587 30.4819 15.0123 30.4738C15.8216 30.5143 16.2033 29.4691 16.5683 26.5441C16.957 23.4309 17.5539 22.6771 21.0736 20.8554C23.5995 19.5476 23.8164 18.9962 22.5284 17.1555Z" fill="#054CB6"/>
<path d="M107.095 95.9598L107.09 95.9871C105.921 95.4022 104.555 92.0072 104.987 89.9076C105.139 89.1689 105.106 88.4141 104.913 88.2306C104.899 88.2173 104.877 88.2062 104.848 88.1974C104.348 88.1336 102.817 88.3779 101.14 88.802L100.839 88.8791L100.838 88.8793C98.6765 89.4263 97.7509 89.6605 97.2041 89.5284C97.0682 89.5065 96.9549 89.4653 96.8536 89.4039C96.6039 89.2528 96.4271 88.9797 96.1649 88.5748C96.1443 88.5428 96.1231 88.5101 96.1012 88.4765C95.5162 87.5761 95.5817 86.7725 96.4744 83.8867C97.4475 80.7421 97.473 79.9763 96.7271 76.3144C96.2709 74.0737 95.975 71.8222 96.069 71.3116C96.3015 70.0501 98.0865 69.5998 100.712 70.1401C103.298 70.6725 106.301 70.1575 108.882 68.7387C110.096 68.0714 110.922 67.797 111.527 67.9433C112.051 68.0327 112.414 68.4164 112.713 69.1108L107.177 96.0049C107.15 95.9914 107.123 95.9764 107.095 95.9598Z" fill="#1ABB71"/>
<path d="M27.3372 59.4398C28.5759 61.0205 29.2764 61.7115 29.7898 61.7848C29.9873 61.8374 30.1567 61.8037 30.3155 61.6976C30.7264 61.4231 31.1139 60.9439 31.1773 60.6329C31.2839 60.1119 26.52 56.6639 25.6211 56.5528C25.5258 56.5273 25.457 56.5249 25.42 56.5495C25.2946 56.6333 26.1574 57.9342 27.3372 59.4398Z" fill="#1ABB71"/>
<path d="M34.7907 65.5636C35.7452 66.1169 36.461 66.8864 36.3815 67.2729C36.1908 68.1992 38.6007 71.7883 39.8205 72.3957C40.0023 72.4861 40.1585 72.5426 40.2929 72.5632C40.7284 72.671 40.9561 72.4538 41.0777 71.8631C41.1942 71.2971 41.5293 70.8841 41.8219 70.9443C42.1151 71.0047 42.4941 70.3753 42.6649 69.5451C42.8358 68.7149 43.3183 67.807 43.737 67.5273C44.8433 66.7884 44.4175 66.4335 40.2685 64.6318C39.3834 64.2471 38.4962 63.8336 37.7368 63.4559C37.2198 63.1996 36.7616 62.9595 36.4036 62.7563C36.067 62.5655 35.8177 62.4089 35.6897 62.3001C35.3518 62.0163 35.0388 61.8522 34.7576 61.8048C34.0653 61.6334 33.5527 62.1403 33.3176 63.2828C33.1161 64.2613 33.4584 64.7909 34.7907 65.5636Z" fill="#1ABB71"/>
<path d="M44.2548 72.8402C44.5955 73.0402 45.8376 73.6768 47.0162 74.2555C48.5486 75.0081 49.1011 75.5866 48.9569 76.2869C48.5365 78.3291 51.6911 81.9676 54.3594 82.5168C54.3907 82.5232 54.421 82.5292 54.4503 82.5348C54.8543 82.6178 55.0924 82.6315 55.2046 82.5011C55.3016 82.3874 55.3053 82.1681 55.2414 81.7931L55.2131 81.6347L55.1893 81.5164L55.1351 81.2663C54.8921 80.1795 55.0261 79.5024 55.6436 78.702C56.3945 77.7279 56.7627 76.829 58.3418 72.1143C58.7342 70.9422 58.5489 70.7312 56.4405 69.9611C56.2426 69.8893 56.008 69.8073 55.7446 69.7193L55.1194 69.5178C54.8854 69.4426 54.6374 69.3645 54.3794 69.2858L53.9028 69.1418C53.4678 69.0104 53.0126 68.8762 52.553 68.7438C51.7391 68.5102 50.9131 68.2834 50.1651 68.0903C49.0838 67.8114 48.299 67.611 47.7278 67.4947C46.1748 67.1681 46.1154 67.4165 46.055 68.339C46.0085 69.0448 45.4733 70.1266 44.8661 70.744C43.532 72.0991 43.4535 72.3701 44.2548 72.8402Z" fill="#1ABB71"/>
<path d="M59.4502 80.7693C59.9128 81.0662 60.7539 81.3454 61.6163 81.513C62.0727 81.6059 62.5384 81.6683 62.9603 81.6862C63.5603 81.7116 63.9934 81.7325 64.2985 81.786C64.9802 81.9332 64.9263 82.2951 64.6977 83.4055C64.1001 86.3084 67.2147 90.0112 70.4002 90.6252C70.8081 90.711 71.2178 90.7466 71.6215 90.724C72.9811 90.6488 73.0695 90.2971 72.3163 87.9563C71.814 86.4003 71.8664 85.9642 72.651 85.128C73.3814 84.3509 73.5743 83.5212 73.5562 81.2278C73.5458 79.8878 73.6223 78.9801 73.8923 78.0744C74.0992 77.3812 74.4195 76.6898 74.9 75.8072C75.2493 75.1663 75.5071 74.6321 75.6746 74.1981C75.9536 73.4765 75.9855 73.0322 75.7782 72.8343C75.6875 72.7474 75.4262 72.6628 75.0473 72.5876C74.3163 72.4321 73.084 72.313 71.7945 72.2903C70.5579 72.2685 69.0767 72.0894 67.7886 71.8256C67.0831 71.6781 66.4394 71.5051 65.9309 71.3191C65.1085 71.0186 64.4179 70.8072 63.8384 70.6946C61.7143 70.2545 61.0402 71.0857 60.8486 73.6413C60.7135 75.4467 60.3139 76.6407 59.5243 77.6027C57.9946 79.4655 57.9863 79.8296 59.4502 80.7693Z" fill="#1ABB71"/>
<path d="M76.0758 86.2318C76.2909 86.3707 76.6501 86.4883 77.1339 86.5827C78.2777 86.8202 80.1714 86.9204 82.5335 86.8556C82.9016 86.8457 83.1803 86.8446 83.3852 86.8782C83.8991 87.0032 83.8502 87.4319 83.5813 88.7382C82.9588 91.7622 84.7698 94.4671 88.1083 95.4999C88.5038 95.6222 88.9137 95.7252 89.3158 95.8065C90.4594 96.0461 91.5538 96.1124 92.0934 95.9488L93.3597 95.5668L92.3936 93.1161C91.5283 90.9265 91.5301 90.4759 92.4078 88.8597C93.2321 87.3404 93.3021 86.5718 92.8471 84.0521C92.4273 81.7382 92.5341 80.0402 93.3143 76.6137C94.1145 73.0972 94.2476 71.6983 92.9236 71.461C92.2238 71.2998 91.0795 71.5042 89.3548 71.9101C87.4235 72.3645 84.534 72.5212 82.3947 72.2871C80.3826 72.0668 78.5325 72.1053 78.2833 72.3721C78.0341 72.6389 77.9612 74.3491 78.121 76.1725C78.3929 79.2654 78.3186 79.6479 77.015 81.8849C75.278 84.8661 75.1167 85.6118 76.0758 86.2318Z" fill="#1ABB71"/>
</svg>
